<svg width="182" height="326" viewBox="0 0 182 326" fill="none" xmlns="http://www.w3.org/2000/svg">
<path fill-rule="evenodd" clip-rule="evenodd" d="M163 2C172.389 2 180 9.61116 180 19V139.515C170.66 142.971 164 151.955 164 162.5C164 173.045 170.66 182.029 180 185.485V307C180 316.389 172.389 324 163 324H0C-9.38884 324 -17 316.389 -17 307V19C-17 9.61116 -9.38884 2 0 2H163ZM182 184.047C172.743 181.258 166 172.666 166 162.5C166 152.334 172.743 143.742 182 140.953V19C182 8.50659 173.493 0 163 0H0C-10.4934 0 -19 8.50659 -19 19V307C-19 317.493 -10.4934 326 0 326H163C173.493 326 182 317.493 182 307V184.047Z" fill="white"/>
</svg>
