<svg width="97" height="53" viewBox="0 0 97 53" fill="none" xmlns="http://www.w3.org/2000/svg">
<path d="M2.21191 22.2783C3.60352 22.2783 4.42383 21.4287 4.42383 19.9785V15.335H8.37891C12.832 15.335 15.9229 12.4346 15.9229 8.09863C15.9229 3.74805 12.9346 0.862305 8.59863 0.862305H2.21191C0.820312 0.862305 0 1.71191 0 3.16211V19.9785C0 21.4287 0.820312 22.2783 2.21191 22.2783ZM4.42383 11.8779V4.36328H7.42676C9.96094 4.36328 11.4258 5.71094 11.4258 8.11328C11.4258 10.5303 9.94629 11.8779 7.41211 11.8779H4.42383Z" fill="#4713B4"/>
<path d="M33.4072 22.3516C38.8125 22.3516 42.2549 19.1875 42.2549 14.5293V2.88379C42.2549 1.41895 41.4346 0.569336 40.043 0.569336C38.6514 0.569336 37.8311 1.41895 37.8311 2.88379V14.0898C37.8311 16.7998 36.2344 18.5723 33.4072 18.5723C30.5654 18.5723 28.9688 16.7998 28.9688 14.0898V2.88379C28.9688 1.41895 28.1484 0.569336 26.7568 0.569336C25.3652 0.569336 24.5449 1.41895 24.5449 2.88379V14.5293C24.5449 19.1875 27.9873 22.3516 33.4072 22.3516Z" fill="#4713B4"/>
<path d="M53.5869 22.2783C54.4219 22.2783 54.8906 22 55.4473 21.1943L60.0908 14.6025H60.208L64.9248 21.1797C65.4961 21.9561 66.0381 22.2783 66.8438 22.2783C68.0742 22.2783 68.9678 21.4434 68.9678 20.2861C68.9678 19.7002 68.792 19.2021 68.3818 18.6748L63.0498 11.4824V11.3799L68.543 4.04102C68.9678 3.49902 69.1289 3.03027 69.1289 2.45898C69.1289 1.4043 68.1328 0.569336 66.9756 0.569336C66.126 0.569336 65.6865 0.891602 65.1738 1.65332L60.501 8.47949H60.3838L55.8574 1.7998C55.2861 0.935547 54.7002 0.569336 53.8652 0.569336C52.5762 0.569336 51.624 1.44824 51.624 2.64941C51.624 3.2207 51.7852 3.7041 52.2686 4.34863L57.3662 11.292V11.4092L52.0928 18.7627C51.668 19.3486 51.4922 19.8174 51.4922 20.3594C51.4922 21.4287 52.415 22.2783 53.5869 22.2783Z" fill="#4713B4"/>
<path d="M79.5234 22.2783C80.6953 22.2783 81.3545 21.6924 81.7646 20.2861L82.8779 16.9902H90.5098L91.623 20.3301C92.0186 21.707 92.6777 22.2783 93.9229 22.2783C95.2119 22.2783 96.1348 21.4141 96.1348 20.1982C96.1348 19.7588 96.0615 19.3633 95.8564 18.792L90.0557 3.05957C89.4258 1.33105 88.4004 0.569336 86.6719 0.569336C85.002 0.569336 83.9619 1.36035 83.3467 3.07422L77.5752 18.792C77.3848 19.334 77.2822 19.832 77.2822 20.1982C77.2822 21.4727 78.1465 22.2783 79.5234 22.2783ZM83.8447 13.5625L86.584 4.90527H86.6865L89.4844 13.5625H83.8447Z" fill="#4713B4"/>
<path d="M2.27004 52.9229C3.69821 52.9229 4.54007 52.0288 4.54007 50.5027V45.616H8.59908C13.1692 45.616 16.3413 42.5637 16.3413 38.0007C16.3413 33.4223 13.2745 30.3854 8.82458 30.3854H2.27004C0.841868 30.3854 0 31.2795 0 32.8056V50.5027C0 52.0288 0.841868 52.9229 2.27004 52.9229ZM4.54007 41.9779V34.0697H7.62191C10.2227 34.0697 11.726 35.4879 11.726 38.0161C11.726 40.5597 10.2076 41.9779 7.60688 41.9779H4.54007Z" fill="#E4A400"/>
<path d="M24.5886 52.9229C25.7912 52.9229 26.4677 52.3063 26.8887 50.8264L28.0312 47.3579H35.8636L37.0061 50.8727C37.412 52.3217 38.0885 52.9229 39.3663 52.9229C40.6893 52.9229 41.6364 52.0134 41.6364 50.7339C41.6364 50.2714 41.5612 49.8552 41.3507 49.254L35.3975 32.6977C34.7511 30.8787 33.6988 30.0771 31.9248 30.0771C30.211 30.0771 29.1437 30.9095 28.5123 32.7131L22.5891 49.254C22.3937 49.8244 22.2885 50.3485 22.2885 50.7339C22.2885 52.0751 23.1754 52.9229 24.5886 52.9229ZM29.0234 43.7507L31.8346 34.6401H31.9399L34.8112 43.7507H29.0234Z" fill="#E4A400"/>
<path d="M52.8302 52.9229C54.2584 52.9229 55.1003 52.0288 55.1003 50.5027V45.616H59.1593C63.7294 45.616 66.9014 42.5637 66.9014 38.0007C66.9014 33.4223 63.8346 30.3854 59.3848 30.3854H52.8302C51.402 30.3854 50.5602 31.2795 50.5602 32.8056V50.5027C50.5602 52.0288 51.402 52.9229 52.8302 52.9229ZM55.1003 41.9779V34.0697H58.1821C60.7829 34.0697 62.2862 35.4879 62.2862 38.0161C62.2862 40.5597 60.7678 41.9779 58.1671 41.9779H55.1003Z" fill="#E4A400"/>
<path d="M85.5368 53C91.956 53 96 48.5912 96 41.5154C96 34.4243 91.956 30 85.5368 30C79.1025 30 75.0736 34.4243 75.0736 41.5154C75.0736 48.5912 79.1025 53 85.5368 53ZM85.5368 49.1153C81.9739 49.1153 79.7038 46.1709 79.7038 41.5154C79.7038 36.8445 81.9889 33.8847 85.5368 33.8847C89.0847 33.8847 91.3547 36.8445 91.3547 41.5154C91.3547 46.1709 89.0847 49.1153 85.5368 49.1153Z" fill="#E4A400"/>
</svg>
