<svg width="181" height="326" viewBox="0 0 181 326" fill="none" xmlns="http://www.w3.org/2000/svg">
<path fill-rule="evenodd" clip-rule="evenodd" d="M19 2C9.61116 2 2 9.61116 2 19V139.515C11.3396 142.971 18 151.955 18 162.5C18 173.045 11.3396 182.029 2 185.485V307C2 316.389 9.61116 324 19 324H182C191.389 324 199 316.389 199 307V19C199 9.61116 191.389 2 182 2H19ZM0 184.047C9.25735 181.258 16 172.666 16 162.5C16 152.334 9.25735 143.742 0 140.953V19C0 8.50659 8.50659 0 19 0H182C192.493 0 201 8.50659 201 19V307C201 317.493 192.493 326 182 326H19C8.50659 326 0 317.493 0 307V184.047Z" fill="white"/>
</svg>
